<svg width="23" height="23" viewBox="0 0 23 23" fill="none" xmlns="http://www.w3.org/2000/svg">
<path fill-rule="evenodd" clip-rule="evenodd" d="M2.69011 11.6916C2.69011 13.9727 3.59626 16.1603 5.20923 17.7733C6.82219 19.3862 9.00984 20.2924 11.2909 20.2924C13.572 20.2924 15.7596 19.3862 17.3726 17.7733C18.9856 16.1603 19.8917 13.9727 19.8917 11.6916C19.8917 9.41053 18.9856 7.22288 17.3726 5.60992C15.7596 3.99696 13.572 3.09081 11.2909 3.09081C9.00984 3.09081 6.82219 3.99696 5.20923 5.60992C3.59626 7.22288 2.69011 9.41053 2.69011 11.6916ZM21.1204 11.6916C21.1204 14.2985 20.0848 16.7987 18.2414 18.6421C16.398 20.4855 13.8979 21.5211 11.2909 21.5211C8.68397 21.5211 6.1838 20.4855 4.34041 18.6421C2.49703 16.7987 1.46143 14.2985 1.46143 11.6916C1.46143 9.08466 2.49703 6.5845 4.34041 4.74111C6.1838 2.89772 8.68397 1.86212 11.2909 1.86212C13.8979 1.86212 16.398 2.89772 18.2414 4.74111C20.0848 6.5845 21.1204 9.08466 21.1204 11.6916ZM6.99051 11.0773C6.82758 11.0773 6.67132 11.142 6.5561 11.2572C6.44089 11.3724 6.37617 11.5287 6.37617 11.6916C6.37617 11.8545 6.44089 12.0108 6.5561 12.126C6.67132 12.2412 6.82758 12.3059 6.99051 12.3059H14.1083L11.4703 14.9427C11.4132 14.9998 11.3679 15.0676 11.337 15.1423C11.306 15.2169 11.2901 15.2969 11.2901 15.3777C11.2901 15.4584 11.306 15.5384 11.337 15.6131C11.3679 15.6877 11.4132 15.7555 11.4703 15.8126C11.5274 15.8697 11.5952 15.915 11.6699 15.946C11.7445 15.9769 11.8245 15.9928 11.9053 15.9928C11.986 15.9928 12.066 15.9769 12.1406 15.946C12.2153 15.915 12.2831 15.8697 12.3402 15.8126L16.0263 12.1266C16.0835 12.0695 16.1289 12.0017 16.1598 11.9271C16.1908 11.8524 16.2067 11.7724 16.2067 11.6916C16.2067 11.6108 16.1908 11.5308 16.1598 11.4561C16.1289 11.3815 16.0835 11.3137 16.0263 11.2566L12.3402 7.57059C12.2831 7.51347 12.2153 7.46817 12.1406 7.43725C12.066 7.40634 11.986 7.39043 11.9053 7.39043C11.8245 7.39043 11.7445 7.40634 11.6699 7.43725C11.5952 7.46817 11.5274 7.51347 11.4703 7.57059C11.4132 7.62771 11.3679 7.69552 11.337 7.77015C11.306 7.84478 11.2901 7.92477 11.2901 8.00555C11.2901 8.08633 11.306 8.16632 11.337 8.24094C11.3679 8.31557 11.4132 8.38338 11.4703 8.4405L14.1083 11.0773H6.99051Z" fill="white"/>
</svg>
