<svg width="11" height="11" viewBox="0 0 11 11" fill="none" xmlns="http://www.w3.org/2000/svg">
<g clip-path="url(#clip0_25_3)">
<path d="M5.5 8.59375C5.5 8.68492 5.53622 8.77235 5.60068 8.83682C5.66515 8.90128 5.75258 8.9375 5.84375 8.9375C5.93492 8.9375 6.02235 8.90128 6.08682 8.83682C6.15128 8.77235 6.1875 8.68492 6.1875 8.59375V4.8125C6.18748 4.75191 6.17145 4.6924 6.14102 4.64C6.1106 4.5876 6.06686 4.54418 6.01425 4.51412L3.608 3.13912C3.52904 3.09645 3.43651 3.08635 3.3502 3.11099C3.26389 3.13563 3.19064 3.19306 3.1461 3.27099C3.10157 3.34892 3.08929 3.44118 3.11188 3.52805C3.13447 3.61492 3.19014 3.68951 3.267 3.73588L5.5 5.01187V8.59375Z" fill="white"/>
<path d="M5.5 0C4.04131 0 2.64236 0.579462 1.61091 1.61091C0.579462 2.64236 0 4.04131 0 5.5C0 6.95869 0.579462 8.35764 1.61091 9.38909C2.64236 10.4205 4.04131 11 5.5 11C6.95869 11 8.35764 10.4205 9.38909 9.38909C10.4205 8.35764 11 6.95869 11 5.5C11 4.04131 10.4205 2.64236 9.38909 1.61091C8.35764 0.579462 6.95869 0 5.5 0ZM0.6875 5.5C0.6875 4.22365 1.19453 2.99957 2.09705 2.09705C2.99957 1.19453 4.22365 0.6875 5.5 0.6875C6.77635 0.6875 8.00043 1.19453 8.90295 2.09705C9.80547 2.99957 10.3125 4.22365 10.3125 5.5C10.3125 6.77635 9.80547 8.00043 8.90295 8.90295C8.00043 9.80547 6.77635 10.3125 5.5 10.3125C4.22365 10.3125 2.99957 9.80547 2.09705 8.90295C1.19453 8.00043 0.6875 6.77635 0.6875 5.5Z" fill="white"/>
</g>
<defs>
<clipPath id="clip0_25_3">
<rect width="11" height="11" fill="white" transform="matrix(-1 0 0 -1 11 11)"/>
</clipPath>
</defs>
</svg>
